{
    "asset" : {
        "generator" : "Khronos glTF Blender I/O v1.1.46",
        "version" : "2.0"
    },
    "scene" : 0,
    "scenes" : [
        {
            "name" : "Scene",
            "nodes" : [
                0,
                1,
                2
            ]
        }
    ],
    "nodes" : [
        {
            "name" : "Light",
            "rotation" : [
                0.16907575726509094,
                0.7558803558349609,
                -0.27217137813568115,
                0.570947527885437
            ],
            "translation" : [
                4.076245307922363,
                5.903861999511719,
                -1.0054539442062378
            ]
        },
        {
            "name" : "Camera",
            "rotation" : [
                0.483536034822464,
                0.33687159419059753,
                -0.20870360732078552,
                0.7804827094078064
            ],
            "translation" : [
                7.358891487121582,
                4.958309173583984,
                6.925790786743164
            ]
        },
        {
            "mesh" : 0,
            "name" : "Free 3D Escalator Model",
            "rotation" : [
                0.5,
                0.4999999701976776,
                -0.5000000596046448,
                0.4999999403953552
            ],
            "scale" : [
                0.06000000983476639,
                0.06000000983476639,
                0.06000000983476639
            ],
            "translation" : [
                0,
                0.20315366983413696,
                0
            ]
        }
    ],
    "materials" : [
        {
            "doubleSided" : true,
            "emissiveFactor" : [
                0,
                0,
                0
            ],
            "name" : "cgaxis_models_107_01_03",
            "pbrMetallicRoughness" : {
                "baseColorFactor" : [
                    0.02745099924504757,
                    0.02745099924504757,
                    0.02745099924504757,
                    1
                ],
                "metallicFactor" : 0,
                "roughnessFactor" : 0.7546733021736145
            }
        },
        {
            "doubleSided" : true,
            "emissiveFactor" : [
                0,
                0,
                0
            ],
            "name" : "cgaxis_models_107_01_01",
            "pbrMetallicRoughness" : {
                "baseColorTexture" : {
                    "index" : 0,
                    "texCoord" : 0
                },
                "metallicFactor" : 0,
                "roughnessFactor" : 0.7546733021736145
            }
        },
        {
            "doubleSided" : true,
            "emissiveFactor" : [
                1,
                0.9647060036659241,
                0.8862749934196472
            ],
            "name" : "cgaxis_models_107_01_05",
            "pbrMetallicRoughness" : {
                "baseColorFactor" : [
                    1,
                    0.9647060036659241,
                    0.8862749934196472,
                    1
                ],
                "metallicFactor" : 0,
                "roughnessFactor" : 0.8945907354354858
            }
        },
        {
            "doubleSided" : true,
            "emissiveFactor" : [
                0,
                0,
                0
            ],
            "name" : "cgaxis_models_107_01_04",
            "pbrMetallicRoughness" : {
                "baseColorFactor" : [
                    0.5,
                    0.5,
                    0.5,
                    1
                ],
                "metallicFactor" : 0,
                "roughnessFactor" : 0.6987679600715637
            }
        },
        {
            "doubleSided" : true,
            "emissiveFactor" : [
                0,
                0,
                0
            ],
            "name" : "cgaxis_models_107_01_06",
            "pbrMetallicRoughness" : {
                "baseColorFactor" : [
                    0.21176500618457794,
                    0.21176500618457794,
                    0.21176500618457794,
                    1
                ],
                "metallicFactor" : 0,
                "roughnessFactor" : 0.7546733021736145
            }
        },
        {
            "doubleSided" : true,
            "emissiveFactor" : [
                0,
                0,
                0
            ],
            "name" : "cgaxis_models_107_01_02",
            "normalTexture" : {
                "index" : 1,
                "texCoord" : 0
            },
            "pbrMetallicRoughness" : {
                "baseColorFactor" : [
                    0.02745099924504757,
                    0.02745099924504757,
                    0.02745099924504757,
                    1
                ],
                "metallicFactor" : 0,
                "roughnessFactor" : 0.7546733021736145
            }
        }
    ],
    "meshes" : [
        {
            "name" : "Free 3D Escalator Model",
            "primitives" : [
                {
                    "attributes" : {
                        "POSITION" : 0,
                        "NORMAL" : 1
                    },
                    "indices" : 2,
                    "material" : 0
                },
                {
                    "attributes" : {
                        "POSITION" : 3,
                        "NORMAL" : 4
                    },
                    "indices" : 5,
                    "material" : 1
                },
                {
                    "attributes" : {
                        "POSITION" : 6,
                        "NORMAL" : 7
                    },
                    "indices" : 8,
                    "material" : 2
                },
                {
                    "attributes" : {
                        "POSITION" : 9,
                        "NORMAL" : 10
                    },
                    "indices" : 11,
                    "material" : 3
                },
                {
                    "attributes" : {
                        "POSITION" : 12,
                        "NORMAL" : 13
                    },
                    "indices" : 14,
                    "material" : 4
                },
                {
                    "attributes" : {
                        "POSITION" : 15,
                        "NORMAL" : 16
                    },
                    "indices" : 17,
                    "material" : 5
                }
            ]
        }
    ],
    "textures" : [
        {
            "source" : 0
        },
        {
            "source" : 1
        }
    ],
    "images" : [
        {
            "bufferView" : 6,
            "mimeType" : "image/jpeg",
            "name" : "cgaxis_models_107_01_01"
        },
        {
            "bufferView" : 19,
            "mimeType" : "image/jpeg",
            "name" : "cgaxis_models_107_01_02_bump"
        }
    ],
    "accessors" : [
        {
            "bufferView" : 0,
            "componentType" : 5126,
            "count" : 1331,
            "max" : [
                234.484619140625,
                31.63627052307129,
                -0.11579643934965134
            ],
            "min" : [
                -240.84402465820312,
                -31.618038177490234,
                -268.6148376464844
            ],
            "type" : "VEC3"
        },
        {
            "bufferView" : 1,
            "componentType" : 5126,
            "count" : 1331,
            "type" : "VEC3"
        },
        {
            "bufferView" : 2,
            "componentType" : 5123,
            "count" : 5658,
            "type" : "SCALAR"
        },
        {
            "bufferView" : 3,
            "componentType" : 5126,
            "count" : 26579,
            "max" : [
                224.1872100830078,
                20.96625518798828,
                17.673044204711914
            ],
            "min" : [
                -217.9497528076172,
                -20.74855613708496,
                -222.9505615234375
            ],
            "type" : "VEC3"
        },
        {
            "bufferView" : 4,
            "componentType" : 5126,
            "count" : 26579,
            "type" : "VEC3"
        },
        {
            "bufferView" : 5,
            "componentType" : 5123,
            "count" : 44499,
            "type" : "SCALAR"
        },
        {
            "bufferView" : 7,
            "componentType" : 5126,
            "count" : 112,
            "max" : [
                212.0685272216797,
                20.804094314575195,
                -8.570344924926758
            ],
            "min" : [
                -215.56103515625,
                -20.813899993896484,
                -233.51573181152344
            ],
            "type" : "VEC3"
        },
        {
            "bufferView" : 8,
            "componentType" : 5126,
            "count" : 112,
            "type" : "VEC3"
        },
        {
            "bufferView" : 9,
            "componentType" : 5123,
            "count" : 228,
            "type" : "SCALAR"
        },
        {
            "bufferView" : 10,
            "componentType" : 5126,
            "count" : 510,
            "max" : [
                233.14385986328125,
                26.14853286743164,
                -8.1151123046875
            ],
            "min" : [
                -239.95919799804688,
                -26.04118537902832,
                -267.4908142089844
            ],
            "type" : "VEC3"
        },
        {
            "bufferView" : 11,
            "componentType" : 5126,
            "count" : 510,
            "type" : "VEC3"
        },
        {
            "bufferView" : 12,
            "componentType" : 5123,
            "count" : 510,
            "type" : "SCALAR"
        },
        {
            "bufferView" : 13,
            "componentType" : 5126,
            "count" : 408,
            "max" : [
                215.18289184570312,
                31.173643112182617,
                17.717992782592773
            ],
            "min" : [
                -217.937744140625,
                -31.190732955932617,
                -237.7985076904297
            ],
            "type" : "VEC3"
        },
        {
            "bufferView" : 14,
            "componentType" : 5126,
            "count" : 408,
            "type" : "VEC3"
        },
        {
            "bufferView" : 15,
            "componentType" : 5123,
            "count" : 2202,
            "type" : "SCALAR"
        },
        {
            "bufferView" : 16,
            "componentType" : 5126,
            "count" : 892,
            "max" : [
                262.16717529296875,
                30.730802536010742,
                1.2491036653518677
            ],
            "min" : [
                -262.16717529296875,
                -30.719646453857422,
                -222.95018005371094
            ],
            "type" : "VEC3"
        },
        {
            "bufferView" : 17,
            "componentType" : 5126,
            "count" : 892,
            "type" : "VEC3"
        },
        {
            "bufferView" : 18,
            "componentType" : 5123,
            "count" : 1176,
            "type" : "SCALAR"
        }
    ],
    "bufferViews" : [
        {
            "buffer" : 0,
            "byteLength" : 15972,
            "byteOffset" : 0
        },
        {
            "buffer" : 0,
            "byteLength" : 15972,
            "byteOffset" : 15972
        },
        {
            "buffer" : 0,
            "byteLength" : 11316,
            "byteOffset" : 31944
        },
        {
            "buffer" : 0,
            "byteLength" : 318948,
            "byteOffset" : 43260
        },
        {
            "buffer" : 0,
            "byteLength" : 318948,
            "byteOffset" : 362208
        },
        {
            "buffer" : 0,
            "byteLength" : 88998,
            "byteOffset" : 681156
        },
        {
            "buffer" : 0,
            "byteLength" : 48699,
            "byteOffset" : 770156
        },
        {
            "buffer" : 0,
            "byteLength" : 1344,
            "byteOffset" : 818856
        },
        {
            "buffer" : 0,
            "byteLength" : 1344,
            "byteOffset" : 820200
        },
        {
            "buffer" : 0,
            "byteLength" : 456,
            "byteOffset" : 821544
        },
        {
            "buffer" : 0,
            "byteLength" : 6120,
            "byteOffset" : 822000
        },
        {
            "buffer" : 0,
            "byteLength" : 6120,
            "byteOffset" : 828120
        },
        {
            "buffer" : 0,
            "byteLength" : 1020,
            "byteOffset" : 834240
        },
        {
            "buffer" : 0,
            "byteLength" : 4896,
            "byteOffset" : 835260
        },
        {
            "buffer" : 0,
            "byteLength" : 4896,
            "byteOffset" : 840156
        },
        {
            "buffer" : 0,
            "byteLength" : 4404,
            "byteOffset" : 845052
        },
        {
            "buffer" : 0,
            "byteLength" : 10704,
            "byteOffset" : 849456
        },
        {
            "buffer" : 0,
            "byteLength" : 10704,
            "byteOffset" : 860160
        },
        {
            "buffer" : 0,
            "byteLength" : 2352,
            "byteOffset" : 870864
        },
        {
            "buffer" : 0,
            "byteLength" : 28840,
            "byteOffset" : 873216
        }
    ],
    "buffers" : [
        {
            "byteLength" : 902056,
            "uri" : "data:application/octet-stream;base64,"
        }
    ]
}
